<?xml version="1.0" standalone="no"?>
<!DOCTYPE svg PUBLIC "-//W3C//DTD SVG 20010904//EN"
 "http://www.w3.org/TR/2001/REC-SVG-20010904/DTD/svg10.dtd">
<svg version="1.0" xmlns="http://www.w3.org/2000/svg"
 width="4240.000000pt" height="552.000000pt" viewBox="0 0 4240.000000 552.000000"
 preserveAspectRatio="xMidYMid meet">

<g transform="translate(0.000000,552.000000) scale(0.100000,-0.100000)"
fill="#000000" stroke="none">
<path d="M4770 5505 c-212 -43 -350 -133 -350 -229 0 -44 38 -130 93 -208 58
-85 213 -261 339 -386 l84 -83 102 110 c332 356 424 497 394 600 -44 147 -393
250 -662 196z"/>
<path d="M26660 5505 c-212 -43 -350 -133 -350 -229 0 -44 38 -130 93 -208 58
-85 213 -261 339 -386 l84 -83 102 110 c332 356 424 497 394 600 -44 147 -393
250 -662 196z"/>
<path d="M37235 5259 l-195 -192 -73 70 c-174 169 -349 236 -612 236 -591 -1
-1132 -409 -1369 -1033 -123 -327 -174 -659 -163 -1070 13 -481 117 -868 330
-1227 254 -426 663 -731 1153 -858 247 -64 583 -91 824 -66 675 71 1212 421
1598 1040 34 55 62 102 62 105 0 2 -39 34 -86 71 l-86 66 -97 -97 c-304 -308
-658 -484 -1084 -540 -177 -23 -453 -14 -597 19 -278 66 -466 172 -660 373
-289 300 -456 744 -499 1329 -59 790 151 1366 558 1527 45 18 77 22 166 22
101 1 115 -1 168 -27 57 -28 168 -122 188 -158 8 -15 -13 -40 -129 -156 -160
-160 -246 -271 -301 -386 -50 -106 -63 -162 -62 -273 1 -221 82 -417 317 -764
233 -346 274 -433 274 -584 0 -58 -6 -93 -20 -124 -24 -53 -107 -141 -171
-183 l-48 -31 61 -91 c33 -51 64 -96 69 -101 15 -17 284 151 439 274 101 81
219 200 285 290 172 234 190 480 53 755 -59 119 -86 158 -275 407 -271 356
-298 405 -298 543 0 92 15 127 90 217 l47 55 94 -63 c227 -151 539 -218 724
-155 136 47 256 130 407 283 156 157 408 481 387 497 -6 3 -53 39 -107 80
l-96 73 -63 -56 c-119 -106 -247 -156 -399 -156 -172 0 -364 77 -586 236 -22
16 -27 11 -218 -177z"/>
<path d="M1624 5349 c-487 -35 -930 -277 -1216 -663 -216 -290 -346 -639 -394
-1053 -21 -179 -14 -509 15 -699 102 -672 422 -1195 921 -1505 230 -143 488
-235 795 -286 138 -22 558 -25 705 -5 411 58 740 190 1002 400 248 201 426
507 484 837 24 136 24 396 0 519 -65 331 -220 581 -460 740 -184 122 -375 176
-629 176 -280 0 -495 -53 -1002 -245 -342 -130 -502 -139 -613 -32 -47 45 -64
82 -64 138 1 58 29 127 77 185 l35 42 -96 71 c-53 39 -100 71 -104 71 -11 0
-95 -94 -132 -148 -39 -57 -82 -153 -104 -233 -27 -97 -25 -309 4 -411 75
-266 236 -419 518 -495 91 -24 116 -26 299 -27 175 -1 213 2 305 22 153 35
308 88 537 185 346 147 463 180 643 179 233 -2 399 -91 482 -259 32 -66 33
-71 33 -193 0 -123 -1 -126 -36 -200 -47 -97 -101 -157 -202 -224 -172 -114
-389 -181 -727 -223 -181 -22 -770 -25 -945 -5 -676 79 -1070 275 -1294 644
-223 367 -243 1001 -44 1407 154 314 427 500 795 541 241 27 453 -15 882 -176
243 -92 394 -132 549 -147 201 -19 410 13 593 90 227 95 473 336 666 650 67
108 113 192 107 196 -2 2 -43 35 -91 75 l-88 73 -101 -106 c-170 -176 -296
-243 -476 -253 -149 -8 -236 15 -578 150 -326 129 -531 180 -789 198 -78 5
-143 9 -146 8 -3 0 -55 -4 -116 -9z"/>
<path d="M17725 5350 c-708 -71 -1240 -392 -1448 -874 -63 -146 -81 -238 -81
-406 0 -133 2 -155 33 -265 37 -135 84 -255 131 -336 18 -30 33 -55 34 -56 2
-2 59 22 128 53 l125 56 -37 74 c-67 132 -95 302 -71 426 59 303 357 501 841
558 123 14 385 17 523 6 l109 -8 -149 -152 c-172 -174 -233 -252 -296 -374
-72 -139 -89 -205 -94 -368 -10 -271 40 -418 248 -736 116 -176 155 -254 165
-330 11 -77 -38 -222 -100 -295 l-25 -29 -88 18 c-133 28 -398 20 -543 -16
-349 -88 -619 -294 -869 -660 -34 -50 -61 -93 -61 -97 0 -7 213 -169 223 -169
3 0 25 28 50 62 233 327 506 361 942 121 55 -30 164 -93 243 -140 229 -136
422 -214 653 -265 91 -19 133 -22 329 -22 168 0 250 4 325 17 319 56 609 175
867 357 103 73 288 246 371 348 524 641 628 1601 251 2320 -103 196 -214 342
-387 508 -374 359 -891 577 -1562 660 -153 18 -645 27 -780 14z m785 -850
c403 -82 792 -269 1076 -518 277 -243 478 -579 551 -922 27 -129 25 -465 -4
-570 -77 -278 -226 -500 -428 -639 -240 -167 -548 -219 -844 -145 -134 34
-229 84 -457 241 -111 77 -234 156 -273 177 l-71 37 62 57 c227 207 367 413
433 637 37 121 45 312 21 436 -30 146 -87 276 -206 464 -128 202 -173 320
-174 455 -1 71 4 94 25 140 35 75 134 181 163 175 11 -2 68 -14 126 -25z"/>
<path d="M14390 5273 c-151 -16 -296 -55 -615 -167 -202 -70 -308 -89 -510
-90 -159 0 -176 2 -260 28 -49 16 -97 30 -106 33 -12 3 -27 -18 -57 -82 -45
-93 -48 -105 -30 -105 25 0 160 -94 204 -143 61 -67 109 -170 137 -288 21 -93
21 -110 25 -1219 3 -1178 2 -1225 -40 -1339 -30 -80 -99 -146 -178 -168 l-60
-16 0 -99 c0 -70 4 -100 13 -102 273 -83 466 -189 652 -359 l69 -64 111 83
c124 92 440 301 588 389 53 31 97 61 97 65 0 6 -77 186 -86 201 -2 4 -29 -1
-59 -12 -95 -33 -175 -22 -232 33 -64 62 -63 54 -63 848 l0 716 75 43 c138 80
228 113 301 112 218 -1 355 -205 411 -611 24 -178 24 -866 -1 -1089 -52 -478
-184 -833 -429 -1160 -91 -121 -269 -305 -418 -432 -66 -56 -119 -103 -119
-104 0 -1 43 -41 95 -89 l94 -87 123 77 c334 209 537 364 744 569 169 169 244
257 349 416 178 267 302 600 356 951 41 266 35 872 -11 1188 -31 210 -80 379
-146 499 -101 184 -217 302 -484 491 -69 49 -76 52 -97 39 -12 -8 -96 -64
-185 -125 -209 -142 -339 -220 -513 -306 l-140 -69 -3 323 c-2 190 2 363 8
420 20 175 72 320 147 407 82 96 241 167 401 178 l82 6 0 108 0 109 -102 -2
c-57 0 -119 -3 -138 -5z"/>
<path d="M24619 4274 c-57 -59 -156 -134 -354 -269 -295 -199 -433 -318 -547
-469 -121 -161 -175 -307 -185 -498 -18 -364 144 -645 467 -808 116 -58 110
-59 158 9 99 141 227 249 347 293 87 31 244 31 337 0 257 -88 408 -346 354
-602 -20 -96 -73 -207 -126 -264 l-42 -45 -101 103 c-156 156 -254 208 -440
227 -291 31 -574 -84 -819 -332 -74 -75 -228 -284 -228 -310 0 -8 174 -119
188 -119 4 0 28 21 52 46 63 64 171 133 242 155 184 58 404 -25 675 -253 l94
-79 59 52 c71 63 228 175 467 331 290 190 438 326 539 498 121 205 147 457 72
690 -81 253 -269 458 -513 559 -40 17 -80 31 -89 31 -8 0 -48 -40 -90 -89
-158 -186 -229 -231 -366 -231 -165 0 -298 51 -409 155 -113 107 -155 212
-154 380 1 75 6 115 22 160 22 61 79 155 94 155 5 0 37 -25 70 -56 125 -113
280 -189 437 -214 274 -43 546 79 750 335 44 56 130 187 130 199 0 7 -157 126
-165 126 -3 0 -30 -26 -60 -58 -38 -41 -73 -67 -116 -87 -56 -25 -70 -27 -154
-23 -85 4 -100 7 -177 46 -82 41 -143 88 -296 229 l-79 72 -44 -45z"/>
<path d="M11250 4229 c-60 -52 -217 -152 -430 -274 -324 -186 -448 -272 -575
-400 -160 -160 -240 -305 -299 -542 -43 -172 -51 -253 -51 -523 0 -258 8 -348
45 -527 73 -353 226 -560 557 -751 39 -23 76 -42 82 -42 5 0 40 22 76 50 94
71 230 150 743 433 56 31 104 57 106 57 2 0 6 -55 8 -122 5 -135 21 -192 113
-414 57 -141 74 -240 57 -347 -30 -193 -115 -304 -282 -369 -70 -27 -273 -37
-359 -18 -107 24 -209 92 -249 165 -22 41 -21 157 2 209 21 50 14 58 -81 91
-182 63 -427 59 -562 -10 -203 -102 -243 -322 -90 -489 158 -174 444 -259 909
-273 683 -20 1163 160 1378 518 84 141 114 257 113 449 0 148 -16 257 -57 395
-14 50 -39 133 -54 186 -16 53 -33 131 -39 174 -15 102 -15 1336 -1 1424 20
122 90 213 191 246 l49 17 0 92 0 93 -55 7 c-97 11 -321 74 -473 132 -263 101
-471 208 -650 335 -45 33 -83 59 -85 59 -1 -1 -18 -14 -37 -31z m-55 -623 c83
-41 185 -97 228 -125 l77 -50 0 -706 0 -705 -42 -31 c-114 -84 -297 -145 -397
-133 -244 29 -334 185 -362 632 -9 139 -9 226 0 366 24 383 84 588 222 762 74
93 64 94 274 -10z"/>
<path d="M29339 4224 c-66 -56 -179 -127 -434 -274 -362 -209 -480 -293 -608
-430 -155 -167 -249 -382 -299 -685 -20 -124 -17 -579 5 -725 34 -221 88 -388
169 -525 80 -134 259 -291 443 -386 l60 -32 80 58 c104 75 251 161 575 338
l265 145 3 -51 c8 -170 32 -268 108 -443 59 -136 74 -200 74 -314 0 -303 -176
-470 -495 -470 -203 0 -346 63 -396 175 -23 50 -25 147 -4 206 15 42 15 45 -6
61 -58 48 -248 83 -404 75 -256 -12 -415 -132 -415 -314 0 -200 178 -359 490
-438 190 -48 305 -59 595 -60 419 0 649 43 910 170 255 125 423 323 486 574
19 75 21 103 16 255 -6 192 -14 239 -87 474 -27 88 -54 197 -60 243 -7 57 -10
308 -8 764 3 625 5 684 22 734 24 73 102 151 174 175 l52 18 0 92 0 93 -55 7
c-91 10 -316 72 -463 126 -244 91 -533 244 -728 385 -20 15 -24 13 -65 -21z
m-161 -565 c92 -36 237 -113 345 -181 l77 -50 0 -703 0 -703 -32 -24 c-57 -43
-123 -78 -209 -110 -116 -43 -225 -44 -315 -4 -198 89 -262 310 -251 863 7
367 39 541 133 730 42 85 142 213 166 213 5 0 44 -14 86 -31z"/>
<path d="M31745 4223 c-222 -163 -638 -422 -847 -529 -73 -36 -134 -67 -135
-68 -2 -2 19 -54 44 -117 l48 -115 115 59 c119 61 176 76 245 63 44 -9 100
-56 127 -110 54 -105 52 -62 55 -1153 l4 -1013 399 0 400 0 2 978 3 977 266
134 c301 152 319 156 402 108 57 -33 114 -99 127 -146 6 -22 10 -322 10 -786
0 -865 5 -930 76 -1081 49 -104 156 -213 287 -292 l54 -33 476 241 476 241
-35 96 c-42 115 -43 117 -58 104 -22 -18 -161 -69 -208 -75 -86 -13 -168 27
-205 98 -55 106 -66 277 -61 996 5 665 4 659 82 736 43 44 82 59 174 70 l53 7
-3 94 -3 95 -60 23 c-193 72 -479 252 -612 384 l-52 52 -158 -110 c-193 -133
-443 -293 -622 -395 -120 -69 -403 -216 -416 -216 -3 0 -5 17 -5 38 0 51 -26
205 -46 272 -24 83 -89 200 -144 263 -46 50 -175 147 -196 147 -5 0 -31 -17
-59 -37z"/>
<path d="M7045 4213 c-221 -162 -639 -423 -847 -529 -73 -36 -134 -67 -135
-68 -2 -2 19 -54 44 -117 l48 -115 115 59 c119 61 176 76 245 63 44 -9 100
-56 127 -110 54 -105 52 -62 55 -1153 l4 -1013 399 0 400 0 2 978 3 977 266
134 c301 152 319 156 402 108 57 -33 114 -99 127 -146 6 -22 10 -322 10 -786
0 -865 5 -930 76 -1081 49 -104 156 -213 287 -292 l54 -33 476 241 476 241
-35 96 c-42 115 -43 117 -58 104 -22 -18 -161 -69 -208 -75 -110 -16 -191 41
-227 158 -35 114 -43 301 -39 936 5 665 4 659 82 736 43 44 82 59 174 70 l53
7 -3 94 -3 95 -60 23 c-193 72 -479 252 -612 384 l-52 52 -173 -119 c-319
-221 -618 -402 -879 -533 -76 -38 -141 -69 -144 -69 -3 0 -5 17 -5 38 0 51
-26 205 -46 272 -24 83 -89 200 -144 263 -46 50 -175 147 -196 147 -5 0 -31
-17 -59 -37z"/>
<path d="M22005 4066 c-530 -249 -639 -312 -775 -449 -151 -150 -230 -317
-278 -587 -24 -139 -24 -619 1 -780 65 -421 208 -682 470 -858 117 -79 209
-125 431 -216 174 -71 212 -84 225 -73 9 6 50 41 92 77 123 105 342 260 684
484 176 115 325 214 332 220 8 8 -2 39 -42 124 -30 61 -56 112 -59 112 -2 0
-41 -25 -85 -56 -367 -253 -625 -312 -854 -198 -164 82 -304 258 -366 458 -11
37 -21 78 -21 91 0 24 -70 -8 1002 470 l397 177 -23 37 c-224 353 -721 1129
-729 1138 -9 9 -104 -32 -402 -171z m124 -693 l220 -367 -27 -12 c-15 -6 -152
-66 -304 -133 -152 -66 -280 -121 -283 -121 -9 0 3 455 16 600 12 135 34 239
61 295 20 40 75 105 89 105 5 0 107 -165 228 -367z"/>
<path d="M4857 4164 c-152 -144 -386 -320 -634 -475 -70 -44 -127 -86 -125
-93 2 -15 82 -199 87 -205 2 -2 16 6 30 17 39 31 129 62 178 62 77 0 140 -58
173 -160 17 -50 19 -121 24 -850 l6 -795 23 -70 c40 -122 79 -184 181 -286
104 -104 259 -217 282 -203 21 13 822 556 831 564 4 4 -16 56 -46 117 l-54
110 -39 -29 c-96 -71 -199 -96 -263 -64 -39 21 -86 77 -102 123 -11 30 -14
159 -14 643 0 600 0 606 23 677 36 116 104 193 210 240 l62 27 0 86 0 86 -86
39 c-203 91 -490 306 -614 458 -25 31 -47 56 -50 56 -3 0 -40 -33 -83 -75z"/>
<path d="M26747 4164 c-152 -144 -386 -320 -634 -475 -70 -44 -127 -86 -125
-93 2 -15 82 -199 87 -205 2 -2 16 6 30 17 39 31 129 62 178 62 77 0 140 -58
173 -160 17 -50 19 -121 24 -850 l6 -795 23 -70 c40 -122 79 -184 181 -286
104 -104 259 -217 282 -203 21 13 822 556 831 564 4 4 -16 56 -46 117 l-54
110 -39 -29 c-96 -71 -199 -96 -263 -64 -39 21 -86 77 -102 123 -11 30 -14
159 -14 643 0 600 0 606 23 677 36 116 104 193 210 240 l62 27 0 86 0 86 -86
39 c-203 91 -490 306 -614 458 -25 31 -47 56 -50 56 -3 0 -40 -33 -83 -75z"/>
<path d="M40365 4189 c-282 -206 -755 -401 -1162 -480 l-63 -12 0 -746 c0
-791 -2 -819 -48 -924 -27 -60 -84 -121 -138 -147 l-44 -22 0 -86 0 -87 138
-44 c363 -115 772 -307 1035 -487 44 -30 84 -51 90 -47 7 4 34 24 61 46 66 51
183 119 461 267 416 221 540 321 673 541 122 201 181 452 182 769 0 344 -50
623 -148 816 -43 84 -143 215 -208 271 -100 86 -197 144 -474 281 -151 75
-277 138 -280 139 -3 2 -37 -20 -75 -48z m-116 -574 c226 -54 380 -251 449
-575 38 -177 46 -278 46 -540 -1 -435 -46 -620 -183 -754 -40 -39 -40 -39 -83
-27 -72 22 -286 128 -372 185 -44 30 -100 73 -124 97 l-42 42 2 766 3 765 70
28 c81 31 141 35 234 13z"/>
<path d="M41955 1885 c-27 -8 -53 -14 -57 -15 -5 0 -26 -16 -48 -36 -50 -46
-70 -105 -77 -239 -7 -117 9 -223 40 -280 34 -61 111 -96 227 -103 167 -9 280
30 319 112 56 114 54 370 -2 471 -16 28 -38 48 -79 68 -50 26 -69 30 -165 33
-75 3 -123 0 -158 -11z"/>
</g>
</svg>
